<svg xmlns="http://www.w3.org/2000/svg" width="423" height="482" fill="none"><path stroke="#011F4A" stroke-width="4" d="M-62.774 273.711c-3.156-48.909-17.512-98.873 5.757-141.338C-27.126 77.824 17.76 11.611 77.265 18.147c59.486 6.535 70.635 92.561 108.902 140.94 31.787 40.186 91.256 62.375 93.247 114.624 2.013 52.818-45.816 90.047-84.146 124.203-34.226 30.5-73.157 56.096-118.003 55.935-44.708-.16-88.888-20.361-117.2-56.78-26.202-33.705-20.035-79.908-22.839-123.358Z" clip-rule="evenodd"/><path stroke="#011F4A" stroke-width="4" d="M125.637 439.031c-3.874-61.45-40.97-159 15.009-177.022 67.011-21.574 98.435 111.846 168.268 118.018 57.398 5.073 90.69-117.725 142.186-90.577 45.035 23.742-29.24 96.598-30.262 149.581-.975 50.563 50.034 100.713 24.606 143.632-26.239 44.288-86.96 43.297-136.53 45.282-52.225 2.092-110.007 4.569-147.338-33.911-37.538-38.692-32.462-99.837-35.939-155.003Z" clip-rule="evenodd"/><path stroke="#011F4A" stroke-width="4" d="M-60.157 636.726c-14.346-52.832-70.706-105.036-43.355-151.863 26.456-45.295 94.158-26.007 144.552-21.393 44.515 4.076 85.137 18.277 121.376 45.742 45.513 34.494 101.019 68.916 107.226 127.514 6.52 61.548-30.072 121.737-76.83 159.448-42.223 34.055-100.892 41.363-151.772 24.927-41.248-13.324-58.832-60.647-80.388-99.922-14.374-26.187-12.916-55.383-20.81-84.453Z" clip-rule="evenodd"/><path stroke="#011F4A" stroke-width="4" d="M-404.487 600.801c34.082-55.161 115.659 70.089 174.47 47.813 63.355-23.996 54.737-170.415 121.287-159.835 58.314 9.271-9.139 117.905.361 179.174 6.679 43.075 54.486 73.859 45.48 116.475-10.33 48.89-45.319 101.607-92.645 106.72-46.332 5.006-78.725-46.419-107.285-85.118-16.523-22.39 1.013-57.403-14.82-80.34-35.38-51.254-159.689-71.737-126.848-124.889ZM371.14 226.489c-17.397-46.549 64.224-71.914 109.619-87.183 28.317-9.525 54.439 14.147 83.13 22.349 16.591 4.742 35.996 1.612 47.519 14.998 11.201 13.012 8.017 32.308 8.29 49.836.281 18.007-1.918 34.2-6.709 51.494-14.617 52.759 2.709 158.087-49.1 149.953-54.813-8.605 2.945-122.332-36.314-163.362-39.418-41.197-136.127 16.253-156.435-38.085ZM-233.878 104.823c3.051-23.112 25.471-35.194 35.909-55.794 20.512-40.482 10.103-112.215 53.153-119.982 40.648-7.333 42.922 69.897 75.218 96.822 42.08 35.083 131.965 22.676 135.617 78.954 3.569 54.991-76.2 69.17-124.621 90.495-27.558 12.137-56.483 5.544-86.214 2.361-25.018-2.679-52.41-.51-70.253-19.113-17.88-18.643-22.268-47.54-18.809-73.743Z" clip-rule="evenodd"/><path stroke="#011F4A" stroke-width="4" d="M157.658 102.815c-5.574-29.526-22.33-67.718-.208-86.865 22.469-19.447 55.198 25.37 82.737 15.435C304.866 8.05 349.037-108.453 409.553-75.002c53.371 29.5-38.144 114.527-40.141 177.817-1.849 58.609 80.218 142.354 29.281 166.414-59.288 28.003-99.949-75.727-158.506-105.377-17.302-8.76-39.66 8.701-55.363-2.913-17.47-12.92-23.011-36.117-27.166-58.124Z" clip-rule="evenodd"/><path stroke="#011F4A" stroke-width="4" d="M-36.64 53.412C-41.444 5.92-79.928-61.35-39.995-84.365 4.014-109.729 41.268-21.673 91.48-20.428c47.427 1.176 84.926-83.506 125.399-57.57 37.193 23.835 4.711 88.47-10.174 131.41-9.641 27.813-40.013 37.472-56.654 61.378-23.559 33.845-20.17 92.509-58.57 104.154-39.338 11.929-80.479-20.835-106.275-54.164-23.683-30.599-17.883-72.19-21.846-111.368Z" clip-rule="evenodd"/></svg>